<svg xmlns="http://www.w3.org/2000/svg" width="19" height="19" viewBox="0 0 19 19">
    <g fill="#08385E" fill-rule="evenodd">
        <path d="M6.333 10.94a.384.384 0 0 0-.384-.384H4.607a.384.384 0 0 0-.385.384v1.342c0 .213.172.385.385.385h1.342a.385.385 0 0 0 .384-.385V10.94zM10.556 10.94a.384.384 0 0 0-.385-.384H8.83a.384.384 0 0 0-.385.384v1.342c0 .213.173.385.385.385h1.342a.384.384 0 0 0 .385-.385V10.94zM14.778 10.94a.384.384 0 0 0-.385-.384h-1.342a.384.384 0 0 0-.384.384v1.342c0 .213.172.385.384.385h1.342a.384.384 0 0 0 .385-.385V10.94zM6.333 14.459a.384.384 0 0 0-.384-.385H4.607a.384.384 0 0 0-.385.385V15.8c0 .212.172.384.385.384h1.342a.384.384 0 0 0 .384-.384v-1.342zM10.556 14.459a.384.384 0 0 0-.385-.385H8.83a.384.384 0 0 0-.385.385V15.8c0 .212.173.384.385.384h1.342a.384.384 0 0 0 .385-.384v-1.342zM14.778 14.459a.384.384 0 0 0-.384-.385H13.05a.384.384 0 0 0-.384.385V15.8c0 .212.172.384.384.384h1.343a.384.384 0 0 0 .384-.384v-1.342z"/>
        <path fill-rule="nonzero" d="M17.309 2.12v2.297c0 1.039-.862 1.876-1.924 1.876H14.17c-1.062 0-1.936-.837-1.936-1.876V2.111h-5.47v2.306c0 1.039-.874 1.876-1.936 1.876H3.615c-1.062 0-1.924-.837-1.924-1.876V2.12C.763 2.147 0 2.898 0 3.821v13.466C0 18.227.78 19 1.742 19h15.516c.96 0 1.742-.774 1.742-1.713V3.821c0-.923-.763-1.674-1.691-1.702zm-.564 14.329a.745.745 0 0 1-.753.736H2.975a.745.745 0 0 1-.753-.736V9.493c0-.407.337-.737.753-.737h13.017c.416 0 .753.33.753.737v6.956z"/>
        <path d="M3.368 4.926h1.005c.305 0 .553-.281.553-.628V.628C4.926.281 4.678 0 4.373 0H3.368c-.306 0-.553.281-.553.628v3.67c0 .347.247.628.553.628zM14.627 4.926h1.006c.305 0 .552-.281.552-.628V.628c0-.347-.247-.628-.552-.628h-1.006c-.305 0-.553.281-.553.628v3.67c0 .347.248.628.553.628z"/>
    </g>
</svg>
