<svg xmlns="http://www.w3.org/2000/svg" width="10" height="10" viewBox="0 0 10 10">
    <g fill="#151515" fill-rule="evenodd" opacity=".5">
        <path d="M3.333 5.758a.202.202 0 0 0-.202-.202h-.706a.202.202 0 0 0-.203.202v.706c0 .112.09.203.203.203h.706c.112 0 .202-.09.202-.203v-.706zM5.556 5.758a.202.202 0 0 0-.203-.202h-.706a.202.202 0 0 0-.203.202v.706c0 .112.091.203.203.203h.706c.112 0 .203-.09.203-.203v-.706zM7.778 5.758a.202.202 0 0 0-.203-.202H6.87a.202.202 0 0 0-.202.202v.706c0 .112.09.203.202.203h.706c.112 0 .203-.09.203-.203v-.706zM3.333 7.61a.202.202 0 0 0-.202-.203h-.706a.202.202 0 0 0-.203.203v.706c0 .112.09.203.203.203h.706c.112 0 .202-.091.202-.203V7.61zM5.556 7.61a.202.202 0 0 0-.203-.203h-.706a.202.202 0 0 0-.203.203v.706c0 .112.091.203.203.203h.706c.112 0 .203-.091.203-.203V7.61zM7.778 7.61a.202.202 0 0 0-.202-.203h-.707a.202.202 0 0 0-.202.203v.706c0 .112.09.203.202.203h.707c.111 0 .202-.091.202-.203V7.61z"/>
        <path fill-rule="nonzero" d="M9.11 1.115v1.21a1 1 0 0 1-1.013.987h-.639c-.559 0-1.018-.44-1.018-.987V1.11H3.56v1.214c0 .546-.46.987-1.018.987h-.64A1 1 0 0 1 .89 2.325v-1.21a.91.91 0 0 0-.89.896v7.088c0 .494.41.901.917.901h8.166A.912.912 0 0 0 10 9.099V2.01a.91.91 0 0 0-.89-.896zm-.297 7.542a.392.392 0 0 1-.396.388H1.566a.392.392 0 0 1-.397-.388v-3.66c0-.215.178-.388.397-.388h6.85c.22 0 .397.173.397.387v3.661z"/>
        <path d="M1.772 2.593h.53c.16 0 .29-.148.29-.33V.33c0-.183-.13-.331-.29-.331h-.53c-.16 0-.29.148-.29.33v1.932c0 .183.13.33.29.33zM7.698 2.593h.53c.16 0 .29-.148.29-.33V.33c0-.183-.13-.331-.29-.331h-.53c-.16 0-.29.148-.29.33v1.932c0 .183.13.33.29.33z"/>
    </g>
</svg>
