<svg xmlns="http://www.w3.org/2000/svg" width="22" height="22" viewBox="0 0 22 22">
    <g fill="#151515" fill-rule="evenodd">
        <path fill-rule="nonzero" d="M11.97 19.298c-.17.23-.418.398-.701.473l-1.407.37a1.29 1.29 0 0 1-1.061-.174 1.2 1.2 0 0 1-.536-.89l-.123-1.398c-.03-.287.05-.574.22-.805l.052-.072H3.395a.724.724 0 0 1-.733-.71c0-.39.328-.711.733-.711H9.47l1.358-1.866H3.395a.724.724 0 0 1-.733-.71c0-.39.328-.712.733-.712l8.478-.02 3.18-4.387V4.438a.966.966 0 0 0-.983-.964h-2.434v1.853c0 .875-.743 1.567-1.65 1.567H5.09c-.91 0-1.627-.693-1.627-1.567V3.474h-2.46C.448 3.474 0 3.905 0 4.438v16.574c0 .533.449.988 1.003.988h13.066a.986.986 0 0 0 .983-.988v-5.926l-3.083 4.212zM3.394 8.805h8.283c.404 0 .733.321.733.71 0 .39-.329.712-.733.712H3.395a.724.724 0 0 1-.733-.711c0-.39.328-.71.733-.71z"/>
        <path fill-rule="nonzero" d="M5.255 5.79h4.543c.343 0 .623-.297.623-.663V2.352c0-.366-.28-.663-.623-.663h-.685C9.108.756 8.395 0 7.514 0c-.88 0-1.593.756-1.598 1.69h-.66c-.346 0-.624.296-.624.662v2.774c0 .366.278.663.623.663zM7.515.94c.391 0 .708.335.712.75H6.801c.005-.415.322-.75.714-.75z"/>
        <path d="M21.992 4.707a.472.472 0 0 0-.212-.304l-1.317-.844a.54.54 0 0 0-.293-.085c-.16 0-.32.07-.419.2l-9.33 12.311 2.155 1.383 9.332-12.31a.445.445 0 0 0 .084-.35z"/>
        <path d="M10.422 17.033l.113 1.267a.242.242 0 0 0 .106.18.265.265 0 0 0 .145.046.245.245 0 0 0 .067-.009l1.267-.336a.257.257 0 0 0 .141-.096l.476-.661-1.796-1.213-.476.66a.234.234 0 0 0-.043.162z"/>
    </g>
</svg>
