<svg xmlns="http://www.w3.org/2000/svg" width="19" height="19" viewBox="0 0 19 19">
    <g fill="#FFF" fill-rule="evenodd">
        <path fill-rule="nonzero" d="M10.337 16.667c-.146.199-.36.343-.605.408l-1.215.32a1.115 1.115 0 0 1-.916-.15 1.036 1.036 0 0 1-.463-.77l-.106-1.207a1.005 1.005 0 0 1 .19-.695l.045-.062H2.932a.625.625 0 0 1-.633-.613c0-.337.283-.614.633-.614H8.18l1.172-1.612H2.932a.626.626 0 0 1-.633-.614c0-.336.283-.614.633-.614l7.322-.018L13 6.638V3.833A.835.835 0 0 0 12.152 3H10.05v1.6c0 .756-.642 1.354-1.426 1.354H4.396c-.786 0-1.405-.598-1.405-1.353V3H.866C.387 3 0 3.373 0 3.833v14.313c0 .461.388.854.866.854H12.15c.479 0 .849-.393.849-.854v-5.118l-2.663 3.639zM2.932 7.605h7.154c.349 0 .633.277.633.613a.626.626 0 0 1-.633.614H2.932a.626.626 0 0 1-.633-.614c0-.336.283-.613.633-.613z"/>
        <path fill-rule="nonzero" d="M4.538 5h3.924C8.758 5 9 4.744 9 4.428V2.03c0-.316-.242-.572-.538-.572H7.87C7.866.653 7.25 0 6.49 0c-.76 0-1.377.653-1.381 1.459h-.57c-.298 0-.539.256-.539.572v2.396c0 .316.24.573.538.573zM6.49.813c.338 0 .612.288.615.646H5.874c.004-.358.278-.646.616-.646z"/>
        <path d="M18.993 4.065a.407.407 0 0 0-.183-.262l-1.138-.73a.466.466 0 0 0-.614.1L9 13.806 10.861 15l8.06-10.631a.384.384 0 0 0 .072-.304z"/>
        <path d="M9.001 14.71l.097 1.095c.005.063.04.12.092.156.038.025.082.039.126.039.019 0 .038-.003.057-.008l1.094-.29a.222.222 0 0 0 .122-.083l.411-.571L9.449 14l-.41.57a.202.202 0 0 0-.038.14z"/>
    </g>
</svg>
