<svg xmlns="http://www.w3.org/2000/svg" width="110" height="64" viewBox="0 0 110 64">
    <g fill="#FFF" fill-rule="evenodd">
        <path d="M27.066 5.06C23.333 1.38 7.466.46 2.333 0c-.466 0-.933 0-1.4.46C.467.92 0 1.84 0 2.3v41.4C0 45.08.933 46 2.333 46h14c.934 0 1.867-.46 2.334-1.38 0-1.38 8.4-25.76 9.333-37.72 0-.46 0-1.38-.934-1.84zM74.937 16.364c-4.61-1.364-8.759-3.182-12.447-4.546C54.193 8.182 50.505 10 43.13 17.273c-3.227 3.181-5.532 7.727-5.071 9.545 0 .455 0 .455.922.91 2.305.908 5.531 1.363 8.758-3.637.461-.455.922-.91 1.844-.91 1.383 0 1.844-.454 3.227-.908.922-.455 1.844-.91 3.226-1.364h.922c.461 0 1.383.454 1.844.454 2.305 2.273 6.454 5.455 10.603 9.092 6.454 5 12.907 10.454 16.134 14.545H86c-3.227-9.09-8.758-24.546-11.063-28.636zM107.714 4C89.886 4 79.83 8.6 79.371 8.6L78 9.98c0 .46 0 1.38.457 1.84 2.743 4.6 11.886 29.9 13.257 36.34.457.92 1.372 1.84 2.286 1.84h13.714c1.372 0 2.286-.92 2.286-2.3V6.3c0-1.38-.914-2.3-2.286-2.3z"/>
        <path d="M83.605 49.454c-1.849-4.09-9.704-10-16.634-15.454-3.697-3.182-7.393-5.91-10.165-8.182-.462.454-1.387.454-1.387.91-1.386.454-1.848.908-3.696.908-3.696 4.546-8.317 6.364-13.4 4.546-2.31-.455-3.696-2.273-4.158-4.091C33.241 23.545 37.4 17.18 40.634 14h-9.241C29.545 23.091 26.31 34.909 24 41.273c1.848 1.818 3.696 4.09 5.083 5 8.779 7.272 18.944 14.545 20.792 15.909 1.386.91 4.158 1.818 5.545 1.818h1.386l-7.393-7.273c-.924-.909-.924-2.273 0-3.182.924-.909 2.31-.909 3.234 0l9.241 9.091c.924.91 1.848.455 2.773.455 1.386-.455 1.848-1.364 2.31-2.727L56.344 49.909c-.925-.91-.925-2.273 0-3.182.924-.909 2.31-.909 3.234 0l11.551 11.364c.462.454 2.31.454 3.697 0 .462-.455 1.386-.91 1.848-1.818L63.736 43.545c-.924-.909-.924-2.273 0-3.181.925-.91 2.31-.91 3.235 0l13.4 13.181c.923.455 1.847 0 2.772-.454.462-.455 1.386-1.818.462-3.637z"/>
    </g>
</svg>
