<svg xmlns="http://www.w3.org/2000/svg" width="18" height="18" viewBox="0 0 18 18">
    <g fill="#FFF" fill-rule="evenodd">
        <path d="M8.937 10.727a1.79 1.79 0 0 0 .001-3.579c-.596 0-1.123.295-1.448.746a1.788 1.788 0 0 0 1.447 2.832zM12.835 6.749V5.026h-.224l-1.495.005.006 1.723z"/>
        <path fill-rule="nonzero" d="M8.938 0C4.02 0 .02 4.01.02 8.937c0 4.928 4 8.938 8.917 8.938 4.916 0 8.916-4.01 8.916-8.938 0-4.928-4-8.937-8.916-8.937zm5.07 7.894v4.162c0 1.084-.879 1.965-1.96 1.965H5.827c-1.08 0-1.96-.881-1.96-1.965V5.819c0-1.083.88-1.964 1.96-1.964h6.222c1.081 0 1.96.88 1.96 1.964v2.075z"/>
        <path d="M11.711 8.937a2.78 2.78 0 0 1-2.773 2.78 2.78 2.78 0 0 1-2.57-3.823H4.854v4.162c0 .538.436.973.972.973h6.222a.973.973 0 0 0 .972-.973V7.894h-1.515c.132.322.206.675.206 1.043z"/>
    </g>
</svg>
