<svg xmlns="http://www.w3.org/2000/svg" width="65" height="68" viewBox="0 0 65 68">
    <path fill="#FFF" fill-rule="evenodd" d="M59.795 22.777C53.811 8.859 44.182-1.743 39.31.239 31.035 3.6 44.238 19.745 3.61 36.255.098 37.68-.792 43.388.678 46.8c1.465 3.411 6.266 6.807 9.776 5.382.607-.247 2.838-.964 2.838-.964 2.506 3.363 5.13 1.369 6.06 3.505 1.118 2.568 3.55 8.149 4.375 10.048.828 1.897 2.703 3.654 4.064 3.138l7.747-2.948c1.767-.672 2.189-2.247 1.65-3.49-.583-1.339-2.973-1.732-3.653-3.294-.682-1.563-2.908-6.57-3.548-8.149-.871-2.146.978-3.892 3.665-4.172 18.493-1.927 21.95 9.49 28.246 6.93 4.872-1.98 3.88-16.09-2.104-30.01zm-2.517 22.199c-1.117.448-8.622-5.397-13.419-16.417C39.064 17.54 39.666 7.467 40.781 7.02c1.115-.448 8.435 6.603 13.231 17.621 4.796 11.018 4.382 19.887 3.266 20.335z"/>
</svg>
