<svg xmlns="http://www.w3.org/2000/svg" width="11" height="15" viewBox="0 0 11 15">
    <g fill="#013659" fill-rule="evenodd">
        <path fill-rule="nonzero" d="M10.528 0H3.806v3.496a.484.484 0 0 1-.472.495H0v10.514c0 .273.211.495.472.495h10.056c.26 0 .472-.222.472-.495V.495A.484.484 0 0 0 10.528 0zM7.006 12.25h-4.59a.484.484 0 0 1-.473-.496c0-.274.212-.496.472-.496h4.59c.262 0 .473.222.473.496a.484.484 0 0 1-.472.495zm1.53-1.747h-6.12a.484.484 0 0 1-.473-.495c0-.273.212-.495.472-.495h6.121c.26 0 .472.222.472.495a.484.484 0 0 1-.472.495zm0-1.745h-6.12a.484.484 0 0 1-.473-.495c0-.274.212-.496.472-.496h6.121c.26 0 .472.222.472.496a.484.484 0 0 1-.472.495zm0-1.746h-6.12a.484.484 0 0 1-.473-.495c0-.274.212-.495.472-.495h6.121c.26 0 .472.221.472.495a.484.484 0 0 1-.472.495zm.472-2.332a.484.484 0 0 1-.472.495h-3.06a.484.484 0 0 1-.473-.495V2.873c0-.274.212-.496.473-.496h3.06c.261 0 .472.222.472.496V4.68z"/>
        <path d="M0 2.885h2.75V0zM5.5 3.462h2.2v.576H5.5z"/>
    </g>
</svg>
