<svg xmlns="http://www.w3.org/2000/svg" width="27" height="22" viewBox="0 0 27 22">
    <path fill="#FFF" fill-rule="nonzero" d="M16.293 3.776c1.249.758 2.124 2.04 2.284 3.53.509.23 1.074.362 1.673.362 2.187 0 3.96-1.717 3.96-3.834C24.21 1.716 22.437 0 20.25 0c-2.166 0-3.924 1.686-3.957 3.776zm-2.594 7.85c2.187 0 3.96-1.716 3.96-3.834 0-2.117-1.773-3.834-3.96-3.834-2.187 0-3.96 1.717-3.96 3.834 0 2.118 1.773 3.834 3.96 3.834zm1.68.262h-3.36c-2.796 0-5.07 2.202-5.07 4.909v3.979l.01.062.283.086C9.91 21.73 12.228 22 14.136 22c3.726 0 5.886-1.029 6.02-1.094l.264-.13h.028v-3.979c.001-2.707-2.273-4.91-5.07-4.91zM21.93 7.93h-3.334a4.659 4.659 0 0 1-1.506 3.29c2.485.716 4.303 2.947 4.303 5.583v1.226c3.292-.117 5.19-1.02 5.314-1.081l.265-.13H27v-3.98c0-2.706-2.274-4.908-5.07-4.908zM6.75 7.669c.775 0 1.496-.22 2.107-.592a4.719 4.719 0 0 1 1.842-3.027c.004-.071.011-.143.011-.215 0-2.118-1.773-3.834-3.96-3.834-2.187 0-3.959 1.716-3.959 3.834 0 2.117 1.772 3.834 3.96 3.834zm3.557 3.552a4.662 4.662 0 0 1-1.505-3.273c-.124-.009-.246-.018-.372-.018H5.07C2.274 7.93 0 10.132 0 12.838v3.98l.01.06.283.087c2.14.647 4.051.945 5.71 1.04v-1.202c0-2.636 1.818-4.866 4.304-5.582z"/>
</svg>
