<svg xmlns="http://www.w3.org/2000/svg" width="20" height="20" viewBox="0 0 20 20">
    <g fill="none" fill-rule="evenodd">
        <circle cx="10" cy="10" r="10" fill="#55ACEE"/>
        <path fill="#F1F2F2" d="M16 7.065a4.48 4.48 0 0 1-1.296.358c.466-.281.823-.726.992-1.257a4.5 4.5 0 0 1-1.433.551A2.248 2.248 0 0 0 12.615 6a2.265 2.265 0 0 0-2.256 2.272c0 .178.02.351.058.518a6.392 6.392 0 0 1-4.651-2.374 2.274 2.274 0 0 0-.306 1.142c0 .788.399 1.484 1.004 1.891a2.23 2.23 0 0 1-1.022-.284v.029c0 1.1.778 2.019 1.81 2.227a2.235 2.235 0 0 1-1.019.04 2.261 2.261 0 0 0 2.108 1.577A4.509 4.509 0 0 1 5 13.98 6.352 6.352 0 0 0 8.46 15c4.15 0 6.42-3.462 6.42-6.465 0-.098-.002-.196-.006-.294.441-.32.824-.72 1.126-1.176z"/>
    </g>
</svg>
