<svg xmlns="http://www.w3.org/2000/svg" width="19" height="18" viewBox="0 0 19 18">
    <path fill="#FFF" fill-rule="nonzero" d="M9.427 0C4.51 0 .51 4.01.51 8.937c0 4.928 4 8.938 8.917 8.938s8.917-4.01 8.917-8.938c0-4.928-4-8.937-8.917-8.937zm3.978 6.892a6 6 0 0 1 .006.267c0 2.718-2.064 5.852-5.84 5.852a5.795 5.795 0 0 1-3.146-.924 4.113 4.113 0 0 0 3.039-.852 2.055 2.055 0 0 1-1.917-1.428 2.064 2.064 0 0 0 .926-.035 2.056 2.056 0 0 1-1.646-2.017V7.73c.277.154.594.247.93.257a2.057 2.057 0 0 1-.913-1.712c0-.377.101-.73.278-1.034a5.823 5.823 0 0 0 4.23 2.15 2.055 2.055 0 0 1 2-2.526c.59 0 1.122.25 1.497.649a4.09 4.09 0 0 0 1.304-.5c-.155.481-.479.884-.904 1.139.416-.05.812-.16 1.179-.324a4.134 4.134 0 0 1-1.023 1.064z"/>
</svg>
