<svg xmlns="http://www.w3.org/2000/svg" width="19" height="18" viewBox="0 0 19 18">
    <g fill="#FFF" fill-rule="evenodd">
        <path d="M7.855 10.945l4.021-2.09-4.02-2.102v4.192z"/>
        <path fill-rule="nonzero" d="M9.487 0C4.541 0 .531 4.02.531 8.977c0 4.958 4.01 8.977 8.956 8.977 4.947 0 8.957-4.02 8.957-8.977C18.444 4.019 14.434 0 9.487 0zm6.103 11.973a1.6 1.6 0 0 1-1.367 1.246c-1.568.176-3.155.176-4.736.176-1.58 0-3.168 0-4.736-.176a1.598 1.598 0 0 1-1.367-1.246c-.22-.96-.22-2.008-.22-2.996s.002-2.037.223-2.996a1.599 1.599 0 0 1 1.366-1.246c1.569-.176 3.156-.177 4.737-.176 1.58 0 3.167 0 4.735.176a1.599 1.599 0 0 1 1.367 1.246c.22.96.219 2.008.219 2.996s0 2.036-.221 2.996z"/>
    </g>
</svg>
